#!OML:ASF H:\Terrain\Walking\May29\JustinRory\Justin.ASF
:FULLY-SPECIFIED
:DEGREES
1845
root 12.6848 17.2778 2.06614 -146.696 -56.7481 160.558 
lowerback 21.5588 -4.83999 -6.70586 
upperback 4.03543 -7.91382 6.85619 
thorax -5.56801 -4.03401 13.5265 
lowerneck -7.08603 -10.5189 -20.0501 
upperneck 10.6409 -13.6524 12.8054 
head 6.67216 -6.72418 6.03509 
rclavicle -9.54166e-14 1.09729e-13 
rhumerus 9.74499 6.00677 -63.2902 
rradius 82.3084 
rwrist -53.1825 
rhand 2.47777 20.7504 
rfingers 7.12502 
rthumb 27.9614 -7.18722 
lclavicle -9.54166e-14 1.09729e-13 
lhumerus 36.6279 -43.4724 89.0104 
lradius 52.3109 
lwrist 6.43866 
lhand -5.5841 40.6852 
lfingers 7.12502 
lthumb 20.2321 69.6516 
rfemur -44.9226 -4.64319 -2.69446 
rtibia 38.9591 
rfoot -6.38397 2.52542 
rtoes -19.0109 
lfemur -18.9237 18.3327 -22.5765 
ltibia 37.6648 
lfoot -19.1674 6.789 
ltoes -10.1517 
1846
root 12.6699 17.2668 2.08337 -146.697 -56.2474 160.763 
lowerback 21.6086 -5.0839 -6.91718 
upperback 3.95293 -8.28173 6.8527 
thorax -5.55497 -4.20942 13.7359 
lowerneck -7.33699 -10.1287 -20.1327 
upperneck 10.7402 -13.0154 12.4894 
head 6.62124 -6.43483 6.02024 
rclavicle -2.14687e-14 1.00187e-13 
rhumerus 10.8589 7.50754 -63.5734 
rradius 82.2797 
rwrist -52.7233 
rhand 2.00952 20.817 
rfingers 7.12502 
rthumb 27.5137 -7.19269 
lclavicle -2.14687e-14 1.00187e-13 
lhumerus 37.8534 -42.6152 88.4508 
lradius 51.043 
lwrist 5.52865 
lhand -5.68365 40.2943 
lfingers 7.12502 
lthumb 20.1364 69.2707 
rfemur -45.1183 -4.47679 -2.90474 
rtibia 38.5719 
rfoot -6.21515 2.93603 
rtoes -17.9959 
lfemur -18.9753 18.3873 -22.7903 
ltibia 38.0792 
lfoot -18.8741 6.22863 
ltoes -10.5646 
1847
root 12.6499 17.2611 2.0961 -147.177 -55.7889 161.346 
lowerback 21.7026 -5.11252 -6.79074 
upperback 3.96834 -8.3007 6.72351 
thorax -5.62244 -4.21335 13.5271 
lowerneck -7.6977 -9.97438 -19.7776 
upperneck 11.057 -12.7475 12.1003 
head 6.68705 -6.30798 5.85726 
rclavicle 6.91771e-14 2.94201e-14 
rhumerus 11.0147 8.31264 -63.9866 
rradius 82.7721 
rwrist -52.5806 
rhand 1.39928 21.1935 
rfingers 7.12502 
rthumb 26.9299 -6.90769 
lclavicle 6.91771e-14 2.94201e-14 
lhumerus 39.2132 -42.7271 87.4394 
lradius 50.034 
lwrist 5.39404 
lhand -6.8081 40.696 
lfingers 7.12502 
lthumb 19.0554 69.7825 
rfemur -45.1195 -4.17522 -2.83427 
rtibia 38.1497 
rfoot -6.06937 3.19572 
rtoes -18.5257 
lfemur -18.7973 18.4791 -22.6843 
ltibia 38.5754 
lfoot -18.8669 5.75735 
ltoes -12.1732 
1848
root 12.6326 17.2724 2.116 -147.899 -55.5652 162.264 
lowerback 21.8174 -5.26486 -6.369 
upperback 3.99157 -8.41736 6.72264 
thorax -5.6887 -4.27484 13.3185 
lowerneck -8.1982 -9.7906 -19.5797 
upperneck 11.3182 -12.3777 11.675 
head 6.75318 -6.13602 5.71399 
rclavicle 7.87187e-14 -6.36111e-14 
rhumerus 11.0293 9.2627 -64.5321 
rradius 83.448 
rwrist -52.4744 
rhand 0.654858 21.8029 
rfingers 7.12502 
rthumb 26.2175 -6.40622 
lclavicle 7.87187e-14 -6.36111e-14 
lhumerus 40.7819 -42.6776 86.2981 
lradius 48.8914 
lwrist 5.53627 
lhand -7.09576 40.505 
lfingers 7.12502 
lthumb 18.7787 69.6186 
rfemur -45.1278 -3.97667 -2.41305 
rtibia 37.7476 
rfoot -5.8945 3.373 
rtoes -18.5115 
lfemur -18.7305 18.3404 -22.2862 
ltibia 39.1157 
lfoot -19.1723 5.24101 
ltoes -12.1334 
1849
root 12.6207 17.2859 2.14228 -148.11 -55.2944 162.6 
lowerback 21.9251 -5.39521 -6.32504 
upperback 3.98179 -8.58597 6.73144 
thorax -5.71627 -4.35754 13.3561 
lowerneck -8.39042 -9.57529 -19.4374 
upperneck 11.2108 -12.0006 11.349 
head 6.66055 -5.96193 5.62671 
rclavicle -2.78299e-14 1.51076e-14 
rhumerus 11.0166 9.95935 -65.1518 
rradius 83.9852 
rwrist -51.9566 
rhand 0.499221 22.6356 
rfingers 7.12502 
rthumb 26.0685 -5.59558 
lclavicle -2.78299e-14 1.51076e-14 
lhumerus 42.2185 -42.2861 85.774 
lradius 47.5507 
lwrist 5.25832 
lhand -5.29728 38.773 
lfingers 7.12502 
lthumb 20.5078 67.7099 
rfemur -45.1587 -4.10165 -2.25987 
rtibia 37.3483 
rfoot -5.61728 3.7031 
rtoes -18.4594 
lfemur -18.7855 18.2312 -22.2823 
ltibia 39.6659 
lfoot -18.9642 4.56145 
ltoes -11.1382 
1850
root 12.6087 17.2814 2.16312 -147.982 -54.9101 162.549 
lowerback 21.9181 -5.45411 -6.54456 
upperback 3.95885 -8.71344 6.67002 
thorax -5.68128 -4.41721 13.4386 
lowerneck -8.60404 -9.46008 -19.5577 
upperneck 11.3101 -11.7958 11.4003 
head 6.70701 -5.86032 5.68148 
rclavicle -9.22361e-14 6.12257e-14 
rhumerus 11.1047 10.4222 -65.6665 
rradius 84.3024 
rwrist -51.4768 
rhand 0.32771 23.2634 
rfingers 7.12502 
rthumb 25.9042 -4.99192 
lclavicle -9.22361e-14 6.12257e-14 
lhumerus 43.4239 -42.0244 85.2768 
lradius 46.5017 
lwrist 5.54667 
lhand -3.58643 37.414 
lfingers 7.12502 
lthumb 22.1511 66.165 
rfemur -45.214 -4.18722 -2.46391 
rtibia 36.9227 
rfoot -5.43857 3.97283 
rtoes -18.4586 
lfemur -18.8539 18.3808 -22.5687 
ltibia 40.231 
lfoot -18.5792 4.03455 
ltoes -13.5155 
